<?xml version="1.0" standalone="no"?>
<!DOCTYPE svg PUBLIC "-//W3C//DTD SVG 20010904//EN"
 "http://www.w3.org/TR/2001/REC-SVG-20010904/DTD/svg10.dtd">
<svg version="1.0" xmlns="http://www.w3.org/2000/svg"
 width="500.000000pt" height="500.000000pt" viewBox="0 0 500.000000 500.000000"
 preserveAspectRatio="xMidYMid meet">

<g transform="translate(0.000000,500.000000) scale(0.100000,-0.100000)"
fill="#000000" stroke="none">
<path d="M377 3263 c-4 -3 -7 -332 -7 -730 l0 -723 445 0 445 0 0 80 0 80
-345 0 -345 0 0 650 0 650 -93 0 c-52 0 -97 -3 -100 -7z"/>
<path d="M1767 2899 c-156 -37 -286 -168 -343 -347 -24 -73 -29 -262 -10 -352
43 -206 176 -352 357 -395 277 -65 520 86 594 370 20 77 20 269 0 353 -30 128
-123 260 -223 319 -97 57 -259 79 -375 52z m248 -167 c146 -75 218 -290 171
-513 -45 -210 -201 -318 -382 -264 -92 27 -165 110 -199 228 -19 65 -22 235
-6 308 30 134 104 225 211 260 44 15 162 4 205 -19z"/>
<path d="M2883 2896 c-200 -65 -307 -255 -306 -541 2 -245 77 -418 224 -511
128 -80 344 -65 457 32 l42 36 0 -74 c0 -196 -97 -300 -279 -300 -101 0 -174
28 -245 93 l-54 49 -47 -56 -48 -55 43 -44 c149 -152 447 -186 628 -71 49 31
115 104 142 156 46 91 50 139 50 728 l0 552 -84 0 -84 0 -7 -55 -7 -56 -40 37
c-69 62 -139 88 -248 91 -61 2 -110 -2 -137 -11z m297 -174 c33 -17 67 -44 87
-70 l33 -44 0 -257 0 -258 -42 -48 c-55 -63 -124 -95 -203 -95 -85 0 -131 16
-181 62 -83 77 -121 205 -111 377 12 207 87 327 224 360 56 14 131 3 193 -27z"/>
<path d="M4087 2899 c-156 -37 -286 -168 -343 -347 -24 -73 -29 -262 -10 -352
43 -206 176 -352 357 -395 277 -65 520 86 594 370 20 77 20 269 0 353 -30 128
-123 260 -223 319 -97 57 -259 79 -375 52z m248 -167 c146 -75 218 -290 171
-513 -45 -210 -201 -318 -382 -264 -92 27 -165 110 -199 228 -19 65 -22 235
-6 308 30 134 104 225 211 260 44 15 162 4 205 -19z"/>
</g>
</svg>
